<svg width="621" height="427" viewBox="0 0 621 427" fill="none" xmlns="http://www.w3.org/2000/svg">
<g filter="url(#filter0_d)">
<path d="M43.342 111.558C14.5706 149.559 31.3539 203.246 43.342 225.339C65.2578 339.12 164.16 350.167 197.314 378.336C230.469 406.505 481.095 405.953 531.108 384.412C581.121 362.871 558.081 345.196 541.785 298.8C525.489 252.404 556.957 225.339 586.74 194.961C616.523 164.582 609.78 123.157 597.979 69.0281C586.178 14.8992 527.174 17.1086 481.095 14.3469C435.016 11.5852 392.87 25.946 370.954 69.0281C353.422 103.494 296.591 99.2225 270.367 92.7785C206.68 83.2047 72.1135 73.5572 43.342 111.558Z" fill="url(#paint0_linear)"/>
</g>
<g clip-path="url(#clip0)">
<path d="M99.2982 394.596H171.715" stroke="#3F3D56" stroke-miterlimit="10"/>
<path d="M518.358 126.686H213.768C209.095 126.686 205.306 130.478 205.306 135.156V336.124C205.306 340.803 209.095 344.595 213.768 344.595H518.358C523.032 344.595 526.82 340.803 526.82 336.124V135.156C526.82 130.478 523.032 126.686 518.358 126.686Z" fill="#F2F2F2"/>
<path d="M508.543 112.93H203.953C199.279 112.93 195.491 116.722 195.491 121.401V322.369C195.491 327.047 199.279 330.839 203.953 330.839H508.543C513.216 330.839 517.005 327.047 517.005 322.369V121.401C517.005 116.722 513.216 112.93 508.543 112.93Z" stroke="#D0CDE1" stroke-miterlimit="10"/>
<path d="M195.491 133.821H517.005" stroke="#D0CDE1" stroke-miterlimit="10"/>
<path opacity="0.3" d="M472.249 182.801H390.752C389.043 182.801 387.658 184.187 387.658 185.898V193.241C387.658 194.951 389.043 196.338 390.752 196.338H472.249C473.958 196.338 475.343 194.951 475.343 193.241V185.898C475.343 184.187 473.958 182.801 472.249 182.801Z" fill="#6C63FF"/>
<path opacity="0.3" d="M489.045 220.356H373.956C372.247 220.356 370.862 221.743 370.862 223.453V228.176C370.862 229.887 372.247 231.273 373.956 231.273H489.045C490.754 231.273 492.139 229.887 492.139 228.176V223.453C492.139 221.743 490.754 220.356 489.045 220.356Z" fill="#6C63FF"/>
<path opacity="0.3" d="M489.045 250.051H373.956C372.247 250.051 370.862 251.438 370.862 253.148V257.871C370.862 259.582 372.247 260.968 373.956 260.968H489.045C490.754 260.968 492.139 259.582 492.139 257.871V253.148C492.139 251.438 490.754 250.051 489.045 250.051Z" fill="#6C63FF"/>
<path opacity="0.3" d="M489.045 279.746H373.956C372.247 279.746 370.862 281.133 370.862 282.844V287.566C370.862 289.277 372.247 290.664 373.956 290.664H489.045C490.754 290.664 492.139 289.277 492.139 287.566V282.844C492.139 281.133 490.754 279.746 489.045 279.746Z" fill="#6C63FF"/>
<path d="M476.612 178.434H395.114C393.405 178.434 392.02 179.82 392.02 181.531V188.874C392.02 190.584 393.405 191.971 395.114 191.971H476.612C478.32 191.971 479.706 190.584 479.706 188.874V181.531C479.706 179.82 478.32 178.434 476.612 178.434Z" stroke="#3F3D56" stroke-miterlimit="10"/>
<path d="M493.407 215.989H378.319C376.61 215.989 375.225 217.376 375.225 219.087V223.809C375.225 225.52 376.61 226.907 378.319 226.907H493.407C495.116 226.907 496.501 225.52 496.501 223.809V219.087C496.501 217.376 495.116 215.989 493.407 215.989Z" stroke="#3F3D56" stroke-miterlimit="10"/>
<path d="M493.407 245.684H378.319C376.61 245.684 375.225 247.071 375.225 248.782V253.504C375.225 255.215 376.61 256.602 378.319 256.602H493.407C495.116 256.602 496.501 255.215 496.501 253.504V248.782C496.501 247.071 495.116 245.684 493.407 245.684Z" stroke="#3F3D56" stroke-miterlimit="10"/>
<path d="M493.407 275.379H378.319C376.61 275.379 375.225 276.766 375.225 278.477V283.199C375.225 284.91 376.61 286.297 378.319 286.297H493.407C495.116 286.297 496.501 284.91 496.501 283.199V278.477C496.501 276.766 495.116 275.379 493.407 275.379Z" stroke="#3F3D56" stroke-miterlimit="10"/>
<path opacity="0.3" d="M219.921 132.581C223.535 132.581 226.464 129.648 226.464 126.031C226.464 122.413 223.535 119.48 219.921 119.48C216.307 119.48 213.377 122.413 213.377 126.031C213.377 129.648 216.307 132.581 219.921 132.581Z" fill="#6C63FF"/>
<path opacity="0.3" d="M238.243 132.581C241.857 132.581 244.787 129.648 244.787 126.031C244.787 122.413 241.857 119.48 238.243 119.48C234.629 119.48 231.699 122.413 231.699 126.031C231.699 129.648 234.629 132.581 238.243 132.581Z" fill="#6C63FF"/>
<path opacity="0.3" d="M256.565 132.581C260.179 132.581 263.109 129.648 263.109 126.031C263.109 122.413 260.179 119.48 256.565 119.48C252.951 119.48 250.022 122.413 250.022 126.031C250.022 129.648 252.951 132.581 256.565 132.581Z" fill="#6C63FF"/>
<path d="M222.538 129.961C226.152 129.961 229.082 127.028 229.082 123.41C229.082 119.793 226.152 116.86 222.538 116.86C218.924 116.86 215.994 119.793 215.994 123.41C215.994 127.028 218.924 129.961 222.538 129.961Z" stroke="#D0CDE1" stroke-miterlimit="10"/>
<path d="M240.86 129.961C244.474 129.961 247.404 127.028 247.404 123.41C247.404 119.793 244.474 116.86 240.86 116.86C237.246 116.86 234.317 119.793 234.317 123.41C234.317 127.028 237.246 129.961 240.86 129.961Z" stroke="#D0CDE1" stroke-miterlimit="10"/>
<path d="M259.183 129.961C262.797 129.961 265.727 127.028 265.727 123.41C265.727 119.793 262.797 116.86 259.183 116.86C255.569 116.86 252.639 119.793 252.639 123.41C252.639 127.028 255.569 129.961 259.183 129.961Z" stroke="#D0CDE1" stroke-miterlimit="10"/>
<path d="M297.073 321.669C295.977 316.617 295.687 309.717 296.055 304.917C296.055 304.917 290.515 280.556 286.157 278.283L286.155 278.284C286.089 278.37 283.973 281.146 283.705 289.736C283.432 298.462 280.346 304.189 280.346 304.189C280.346 304.189 281.345 315.066 280.774 321.669L297.073 321.669Z" fill="#3F3D56"/>
<path d="M337.371 166.643H236.835C235.473 166.643 234.124 166.912 232.866 167.433C231.608 167.955 230.465 168.72 229.502 169.683C228.539 170.647 227.775 171.792 227.254 173.051C226.733 174.311 226.464 175.661 226.464 177.024V311.288C226.464 312.651 226.733 314.001 227.254 315.26C227.775 316.52 228.539 317.664 229.502 318.628C230.465 319.592 231.608 320.357 232.866 320.879C234.124 321.4 235.473 321.669 236.835 321.669H272.107C270.929 316.778 269.465 309.14 270.948 303.829L270.947 303.825L270.948 303.828C271.018 303.58 271.091 303.335 271.174 303.098C272.192 299.651 272.532 296.039 272.173 292.463C272.828 289.407 272.828 286.247 272.173 283.191C271.084 278.101 270.321 273.101 270.321 273.101C270.321 273.101 269.72 266.375 270.245 262.252C270.256 262.161 270.27 262.076 270.282 261.988C270.097 261.945 269.993 261.921 269.993 261.921C269.993 261.921 271.537 254.922 272.082 250.468C272.211 249.416 272.38 248.083 272.563 246.662C272.06 246.578 271.565 246.453 271.083 246.286C266.18 244.559 264.636 228.925 264.636 228.925V223.971C264.636 223.971 263.001 216.38 268.722 213.017C274.231 209.779 276.431 208.892 276.586 208.831C276.628 208.801 276.669 208.774 276.712 208.74C277.334 208.251 277.827 207.616 278.147 206.892C278.155 206.767 278.156 206.643 278.152 206.519C278.059 204.744 276.824 203.129 275.652 201.719C274.653 200.517 273.654 199.315 272.654 198.113C272.312 197.755 272.048 197.329 271.882 196.862C271.818 196.605 271.791 196.34 271.8 196.075C271.799 195.976 271.8 195.878 271.802 195.781C271.818 194.884 271.842 193.988 271.875 193.093C271.903 192.31 272.1 191.322 272.865 191.162C273.264 191.078 273.791 191.224 274.001 190.875C274.072 190.732 274.09 190.568 274.052 190.412C274.05 190.424 274.049 190.436 274.046 190.447C274.043 190.433 274.041 190.418 274.038 190.404C273.88 189.776 273.785 189.134 273.754 188.488C273.746 188.197 273.787 187.906 273.877 187.628C274.321 186.329 275.848 185.796 277.198 185.551C278.547 185.305 280.062 185.094 280.909 184.015C281.136 183.656 281.382 183.31 281.646 182.978C282.035 182.624 282.512 182.383 283.027 182.281C284.703 181.856 286.472 182.013 288.047 182.727C288.7 183.025 289.355 183.426 290.071 183.381C290.815 183.334 291.451 182.81 292.185 182.682C293.371 182.476 294.505 183.366 295.09 184.42C295.461 185.09 295.647 185.847 295.628 186.613C295.642 187.376 295.367 188.115 294.858 188.683C294.348 189.226 293.586 189.598 293.374 190.312C293.288 190.603 293.308 190.916 293.231 191.209C293.222 191.246 293.206 191.28 293.194 191.316C293.208 191.334 293.223 191.351 293.237 191.369C294.13 192.547 294.728 193.922 294.983 195.379C295.237 196.835 295.139 198.332 294.698 199.743C294.257 201.154 293.485 202.439 292.447 203.491C291.408 204.542 290.134 205.33 288.73 205.789C288.726 205.881 288.722 205.973 288.723 206.065C288.697 206.638 288.794 207.21 289.007 207.742C289.221 208.275 289.547 208.755 289.962 209.15L298.053 212.472C298.053 212.472 302.924 211.881 304.682 219.157C304.963 220.367 305.065 221.611 304.983 222.851C304.919 223.948 305.068 225.879 306.316 228.379C308.314 232.379 307.86 241.56 303.774 242.469C299.903 243.33 298.398 242.968 298.249 242.927L298.24 243.088C298.304 244.811 298.917 259.669 301.14 261.467C301.755 261.964 301.638 262.3 301.133 262.526L301.134 262.527C301.134 262.527 301.139 262.623 301.148 262.795C301.215 263.881 301.558 268.02 303.047 270.374C304.773 273.101 304.591 288.828 304.591 288.828L305.771 298.1C305.771 298.1 305.045 303.826 305.771 304.826C306.183 305.392 306.683 314.172 307.038 321.669H337.371C340.121 321.669 342.759 320.575 344.704 318.628C346.648 316.681 347.741 314.041 347.741 311.288V177.024C347.741 175.661 347.473 174.311 346.952 173.051C346.43 171.792 345.667 170.647 344.704 169.683C343.741 168.72 342.597 167.955 341.339 167.433C340.081 166.912 338.732 166.643 337.371 166.643Z" fill="#3F3D56"/>
<path d="M326.901 154.852H226.365C220.637 154.852 215.994 159.5 215.994 165.233V299.497C215.994 305.23 220.637 309.878 226.365 309.878H326.901C332.628 309.878 337.271 305.23 337.271 299.497V165.233C337.271 159.5 332.628 154.852 326.901 154.852Z" stroke="#D0CDE1" stroke-miterlimit="10"/>
<path d="M143.283 211.351C143.283 211.351 139.215 210.147 138.342 211.457C137.47 212.767 139.532 222.264 139.532 222.264L148.495 222.809L145.367 214.902L143.283 211.351Z" fill="#2F2E41"/>
<path d="M111.925 289.34C111.925 289.34 120.081 307.262 113.8 306.699C107.519 306.136 105.082 289.34 105.082 289.34H111.925Z" fill="#A0616A"/>
<path d="M165.264 287.472C165.264 287.472 161.686 306.838 167.644 304.77C173.601 302.701 171.903 285.814 171.903 285.814L165.264 287.472Z" fill="#A0616A"/>
<path d="M141.547 206.857C141.547 206.857 141.454 215.865 144.922 216.334C148.39 216.804 142.953 221.589 142.953 221.589L136.766 222.809L127.861 222.152L123.924 217.085C123.924 217.085 130.861 213.801 127.861 203.573L141.547 206.857Z" fill="#A0616A"/>
<path opacity="0.1" d="M141.547 206.857C141.547 206.857 141.454 215.865 144.922 216.334C148.39 216.804 142.953 221.589 142.953 221.589L136.766 222.809L127.861 222.152L123.924 217.085C123.924 217.085 130.861 213.801 127.861 203.573L141.547 206.857Z" fill="black"/>
<path d="M157.483 283.052C157.483 283.052 161.889 292.53 158.421 322.276C158.421 322.276 159.452 332.786 158.608 334.757C157.765 336.727 150.828 363.471 150.828 363.471C150.828 363.471 141.922 365.441 140.704 359.53C140.704 359.53 141.922 351.084 141.829 349.771C141.735 348.457 143.797 334.1 143.797 334.1L139.579 306.324L136.392 331.378C136.392 331.378 136.392 338.604 135.36 340.199C134.329 341.794 135.36 373.887 135.36 373.887C135.36 373.887 138.266 378.766 133.861 378.86C129.455 378.954 125.518 378.766 125.143 375.67C124.768 372.573 124.58 369.476 123.643 367.6C122.705 365.723 121.487 344.234 121.768 336.727C122.049 329.22 115.581 290.653 117.643 286.618C119.706 282.583 157.483 283.052 157.483 283.052Z" fill="#2F2E41"/>
<path d="M136.767 210.235C142.979 210.235 148.015 205.194 148.015 198.975C148.015 192.756 142.979 187.714 136.767 187.714C130.554 187.714 125.518 192.756 125.518 198.975C125.518 205.194 130.554 210.235 136.767 210.235Z" fill="#A0616A"/>
<path d="M125.518 217.273C125.518 217.273 132.361 222.34 142.297 218.305C142.297 218.305 145.578 216.71 145.297 214.27C145.016 211.83 152.14 233.882 152.14 233.882L159.358 272.261L158.983 287.932C158.983 287.932 155.796 286.337 145.859 289.903C135.923 293.468 119.706 285.868 119.706 285.868L120.268 245.612L120.83 222.152L122.33 216.991C122.33 216.991 123.08 215.584 125.518 217.273Z" fill="#F2F2F2"/>
<path d="M141.86 210.973C141.86 210.973 143.516 210.704 145.109 213.238C146.703 215.771 150.453 217.367 150.453 217.367C150.453 217.367 159.546 217.93 160.858 222.809C162.17 227.689 165.451 234.351 167.045 246.644C168.639 258.936 171.826 278.548 172.294 280.143C172.763 281.739 171.638 286.618 172.951 288.12C174.263 289.621 163.67 289.621 163.67 289.621C163.67 289.621 162.733 281.926 162.077 281.926C161.42 281.926 161.608 287.087 162.264 290.841C162.92 294.594 157.483 290.841 157.483 290.841C157.483 290.841 153.265 273.669 149.234 258.186C145.203 242.703 142.86 234.163 143.61 230.691C144.36 227.219 146.422 217.273 144.922 216.334C143.422 215.396 141.86 210.973 141.86 210.973Z" fill="#2F2E41"/>
<path d="M128.342 210.965C128.342 210.965 125.893 212.299 119.706 216.71C113.519 221.12 109.3 224.498 109.3 224.498C109.3 224.498 106.863 226.375 105.363 237.541C103.863 248.708 100.489 277.61 101.801 281.27C103.113 284.929 103.582 287.087 103.113 289.246C102.645 291.404 112.956 291.31 113.144 290.841C113.331 290.372 112.862 281.833 113.331 281.645C113.8 281.457 116.331 286.712 116.8 291.122C117.268 295.533 122.705 299.005 123.924 299.005C125.143 299.005 131.423 273.575 131.517 256.215C131.611 238.855 129.455 224.217 127.861 222.152C126.268 220.088 128.342 210.965 128.342 210.965Z" fill="#2F2E41"/>
<path d="M144.828 364.315C144.828 364.315 145.578 362.251 148.203 362.908C150.828 363.565 152.609 361.219 152.609 361.219C152.609 361.219 154.015 361.031 153.078 362.814C152.14 364.597 151.39 365.817 151.39 365.817C151.39 365.817 157.015 378.672 153.359 381.769C149.703 384.866 145.484 382.989 145.484 382.989C145.484 382.989 141.36 380.08 141.547 372.385C141.547 372.385 141.36 369.946 139.11 366.004C136.86 362.063 135.173 356.058 137.891 354.932C140.61 353.806 141.31 353.764 141.31 353.764C141.31 353.764 140.038 359.588 143.323 361.623L144.828 364.315Z" fill="#3F3D56"/>
<path d="M127.392 378.86C127.392 378.86 125.143 374.637 128.892 374.168C132.642 373.699 136.673 373.417 136.485 375.388C136.298 377.359 135.829 380.361 135.829 380.361L136.485 382.52C136.485 382.52 136.673 387.868 137.329 388.525C137.985 389.182 141.547 394.812 133.954 394.812C126.361 394.812 124.111 393.968 124.768 392.185C125.424 390.402 125.611 381.581 125.611 381.581L127.392 378.86Z" fill="#3F3D56"/>
<path d="M133.204 189.966C133.204 189.966 138.454 191.374 141.172 191.937C143.891 192.5 143.61 190.905 143.61 190.905C143.61 190.905 147.172 191.374 146.984 190.998C146.797 190.623 148.484 188.652 146.516 186.4C144.547 184.148 145.109 182.459 145.109 182.459H143.422L142.953 181.802H140.329C140.329 181.802 138.36 181.052 133.204 181.802C128.049 182.553 121.018 182.741 120.455 185.837C119.893 188.934 116.987 192.781 118.018 194.564C119.049 196.347 124.955 203.666 125.518 206.763C126.08 209.86 128.706 210.548 128.612 208.608C128.517 206.669 125.892 199.913 128.142 199.631C130.392 199.35 134.235 193.626 133.204 189.966Z" fill="#2F2E41"/>
<path d="M507.137 74.1536C505.278 74.2588 503.484 74.8804 501.958 75.9487C500.431 77.0171 499.232 78.49 498.495 80.2022C496.334 85.4311 499.117 91.5732 503.294 95.3862C507.47 99.1991 512.836 101.379 517.711 104.243C524.259 108.091 530.142 113.433 533.419 120.289C536.695 127.146 537.043 135.639 533.192 142.189C529.618 148.269 523.118 151.908 516.919 155.264" stroke="#D0CDE1" stroke-miterlimit="10"/>
<path d="M512.642 78.3208C516.859 78.3208 520.277 76.6589 520.277 74.6089C520.277 72.5589 516.859 70.897 512.642 70.897C508.426 70.897 505.008 72.5589 505.008 74.6089C505.008 76.6589 508.426 78.3208 512.642 78.3208Z" fill="#00918E"/>
<path d="M518.75 102.776C522.966 102.776 526.384 101.114 526.384 99.0637C526.384 97.0137 522.966 95.3518 518.75 95.3518C514.534 95.3518 511.116 97.0137 511.116 99.0637C511.116 101.114 514.534 102.776 518.75 102.776Z" fill="#00918E"/>
<path d="M504.79 106.706C509.006 106.706 512.424 105.044 512.424 102.994C512.424 100.944 509.006 99.282 504.79 99.282C500.574 99.282 497.156 100.944 497.156 102.994C497.156 105.044 500.574 106.706 504.79 106.706Z" fill="#00918E"/>
<path d="M526.602 127.23C530.819 127.23 534.237 125.568 534.237 123.518C534.237 121.468 530.819 119.807 526.602 119.807C522.386 119.807 518.968 121.468 518.968 123.518C518.968 125.568 522.386 127.23 526.602 127.23Z" fill="#00918E"/>
<path d="M541.871 127.23C546.087 127.23 549.505 125.568 549.505 123.518C549.505 121.468 546.087 119.807 541.871 119.807C537.655 119.807 534.237 121.468 534.237 123.518C534.237 125.568 537.655 127.23 541.871 127.23Z" fill="#00918E"/>
</g>
<defs>
<filter id="filter0_d" x="0.455811" y="0.0186768" width="620.544" height="426.054" filterUnits="userSpaceOnUse" color-interpolation-filters="sRGB">
<feFlood flood-opacity="0" result="BackgroundImageFix"/>
<feColorMatrix in="SourceAlpha" type="matrix" values="0 0 0 0 0 0 0 0 0 0 0 0 0 0 0 0 0 0 127 0"/>
<feOffset dx="-7" dy="6"/>
<feGaussianBlur stdDeviation="10"/>
<feColorMatrix type="matrix" values="0 0 0 0 0 0 0 0 0 0 0 0 0 0 0 0 0 0 0.15 0"/>
<feBlend mode="normal" in2="BackgroundImageFix" result="effect1_dropShadow"/>
<feBlend mode="normal" in="SourceGraphic" in2="effect1_dropShadow" result="shape"/>
</filter>
<linearGradient id="paint0_linear" x1="608.454" y1="31.7967" x2="46.4698" y2="400.197" gradientUnits="userSpaceOnUse">
<stop stop-color="#13547A"/>
<stop offset="1" stop-color="#80D0C7"/>
</linearGradient>
<clipPath id="clip0">
<rect width="450.207" height="323.918" fill="white" transform="translate(99.2982 70.897)"/>
</clipPath>
</defs>
</svg>
