<svg width="231" height="230" viewBox="0 0 231 230" fill="none" xmlns="http://www.w3.org/2000/svg">
<mask id="path-1-inside-1" fill="white">
<path fill-rule="evenodd" clip-rule="evenodd" d="M144.231 172.5L201.656 57.5001L86.8056 57.5001L86.8058 57.5004L29.3807 172.5L144.231 172.5L144.231 172.5L144.231 172.5Z"/>
</mask>
<path fill-rule="evenodd" clip-rule="evenodd" d="M144.231 172.5L201.656 57.5001L86.8056 57.5001L86.8058 57.5004L29.3807 172.5L144.231 172.5L144.231 172.5L144.231 172.5Z" fill="white"/>
<path d="M201.656 57.5001L208.201 61.2395L214.275 49.0766L202.128 49.0766L201.656 57.5001ZM144.231 172.5L137.686 168.76L135.589 172.96L137.577 176.941L144.231 172.5ZM86.8056 57.5001L87.2773 49.0766L73.7277 49.0766L80.1519 61.9417L86.8056 57.5001ZM86.8058 57.5004L93.351 61.2398L95.4478 57.0406L93.4595 53.0588L86.8058 57.5004ZM29.3807 172.5L22.8355 168.761L16.762 180.924L28.909 180.924L29.3807 172.5ZM144.231 172.5L148.454 165.236L146.752 164.076L144.702 164.076L144.231 172.5ZM144.231 172.5L140.008 179.764L150.885 168.058L144.231 172.5ZM195.111 53.7606L137.686 168.76L150.776 176.239L208.201 61.2395L195.111 53.7606ZM86.3339 65.9235L201.184 65.9235L202.128 49.0766L87.2773 49.0766L86.3339 65.9235ZM93.4595 53.0588L93.4593 53.0585L80.1519 61.9417L80.152 61.942L93.4595 53.0588ZM35.9259 176.239L93.351 61.2398L80.2606 53.761L22.8355 168.761L35.9259 176.239ZM144.702 164.076L29.8524 164.077L28.909 180.924L143.759 180.923L144.702 164.076ZM148.454 165.236L148.454 165.236L140.007 179.764L140.008 179.764L148.454 165.236ZM137.577 176.941L137.577 176.942L150.885 168.058L150.885 168.058L137.577 176.941Z" fill="#3F3D56" mask="url(#path-1-inside-1)"/>
<mask id="path-3-inside-2" fill="white">
<path fill-rule="evenodd" clip-rule="evenodd" d="M86.8052 172.5L200.459 172.5L143.632 58.6979L144.23 57.5003L143.034 57.5003L143.034 57.5L143.034 57.5003L29.3799 57.5003L86.2069 171.302L85.6088 172.5L86.8049 172.5L86.8051 172.5L86.8052 172.5Z"/>
</mask>
<path fill-rule="evenodd" clip-rule="evenodd" d="M86.8052 172.5L200.459 172.5L143.632 58.6979L144.23 57.5003L143.034 57.5003L143.034 57.5L143.034 57.5003L29.3799 57.5003L86.2069 171.302L85.6088 172.5L86.8049 172.5L86.8051 172.5L86.8052 172.5Z" fill="white"/>
<path d="M200.459 172.5L200.931 180.923L213.078 180.923L207.004 168.76L200.459 172.5ZM86.8052 172.5L86.3335 164.076L82.1398 164.076L80.1515 168.058L86.8052 172.5ZM143.632 58.6979L136.978 54.2563L134.99 58.2382L137.087 62.4374L143.632 58.6979ZM144.23 57.5003L150.884 61.9419L157.308 49.0768L143.759 49.0768L144.23 57.5003ZM143.034 57.5003L136.489 61.2395L138.828 65.9237L143.506 65.9237L143.034 57.5003ZM143.034 57.5L149.579 53.7608L142.805 40.193L136.38 53.0584L143.034 57.5ZM143.034 57.5003L143.506 65.9237L147.699 65.9237L149.688 61.9419L143.034 57.5003ZM29.3799 57.5003L28.9082 49.0768L16.7612 49.0768L22.8347 61.2397L29.3799 57.5003ZM86.2069 171.302L92.8606 175.744L94.8489 171.762L92.7521 167.563L86.2069 171.302ZM85.6088 172.5L78.9551 168.058L72.5309 180.923L86.0805 180.923L85.6088 172.5ZM86.8049 172.5L93.3621 168.785L91.0278 164.076L86.3332 164.076L86.8049 172.5ZM86.8051 172.5L80.2478 176.215L87.0104 189.855L93.4588 176.942L86.8051 172.5ZM199.987 164.076L86.3335 164.076L87.2769 180.923L200.931 180.923L199.987 164.076ZM137.087 62.4374L193.914 176.239L207.004 168.76L150.177 54.9585L137.087 62.4374ZM137.577 53.0587L136.978 54.2563L150.286 63.1395L150.884 61.9419L137.577 53.0587ZM143.506 65.9237L144.702 65.9237L143.759 49.0768L142.562 49.0768L143.506 65.9237ZM136.489 61.2392L136.489 61.2395L149.579 53.761L149.579 53.7608L136.489 61.2392ZM149.688 61.9419L149.688 61.9416L136.38 53.0584L136.38 53.0587L149.688 61.9419ZM29.8516 65.9237L143.506 65.9237L142.562 49.0768L28.9082 49.0768L29.8516 65.9237ZM92.7521 167.563L35.9251 53.7608L22.8347 61.2397L79.6617 175.042L92.7521 167.563ZM92.2625 176.941L92.8606 175.744L79.5531 166.861L78.9551 168.058L92.2625 176.941ZM86.3332 164.076L85.1371 164.076L86.0805 180.923L87.2766 180.923L86.3332 164.076ZM93.3623 168.785L93.3621 168.785L80.2477 176.215L80.2478 176.215L93.3623 168.785ZM80.1515 168.058L80.1513 168.059L93.4588 176.942L93.4589 176.941L80.1515 168.058Z" fill="#3F3D56" mask="url(#path-3-inside-2)"/>
<path d="M100.64 130.28C98.5867 130.28 96.7467 129.947 95.12 129.28C93.4933 128.613 92.1867 127.627 91.2 126.32C90.24 125.013 89.7333 123.44 89.68 121.6H96.96C97.0667 122.64 97.4267 123.44 98.04 124C98.6533 124.533 99.4533 124.8 100.44 124.8C101.453 124.8 102.253 124.573 102.84 124.12C103.427 123.64 103.72 122.987 103.72 122.16C103.72 121.467 103.48 120.893 103 120.44C102.547 119.987 101.973 119.613 101.28 119.32C100.613 119.027 99.6533 118.693 98.4 118.32C96.5867 117.76 95.1067 117.2 93.96 116.64C92.8133 116.08 91.8267 115.253 91 114.16C90.1733 113.067 89.76 111.64 89.76 109.88C89.76 107.267 90.7067 105.227 92.6 103.76C94.4933 102.267 96.96 101.52 100 101.52C103.093 101.52 105.587 102.267 107.48 103.76C109.373 105.227 110.387 107.28 110.52 109.92H103.12C103.067 109.013 102.733 108.307 102.12 107.8C101.507 107.267 100.72 107 99.76 107C98.9333 107 98.2667 107.227 97.76 107.68C97.2533 108.107 97 108.733 97 109.56C97 110.467 97.4267 111.173 98.28 111.68C99.1333 112.187 100.467 112.733 102.28 113.32C104.093 113.933 105.56 114.52 106.68 115.08C107.827 115.64 108.813 116.453 109.64 117.52C110.467 118.587 110.88 119.96 110.88 121.64C110.88 123.24 110.467 124.693 109.64 126C108.84 127.307 107.667 128.347 106.12 129.12C104.573 129.893 102.747 130.28 100.64 130.28ZM140.209 130H133.369L121.929 112.68V130H115.089V101.92H121.929L133.369 119.32V101.92H140.209V130Z" fill="#3F3D56"/>
</svg>
