<svg width="186" height="138" viewBox="0 0 186 138" fill="none" xmlns="http://www.w3.org/2000/svg">
<rect width="153.91" height="104.341" rx="10" transform="matrix(-1 0 0 1 153.911 0)" fill="#2F2E41"/>
<rect width="138.46" height="87.5122" transform="matrix(-1 0 0 1 145.888 8.87378)" fill="white"/>
<ellipse rx="2.377" ry="2.44789" transform="matrix(-1 0 0 1 76.9553 4.58986)" fill="white"/>
<rect width="25.456" height="23.4894" transform="matrix(-1 0 0 1 139.004 21.5319)" fill="#00918E"/>
<rect width="25.456" height="23.4894" transform="matrix(-1 0 0 1 106.695 21.5319)" fill="#00918E"/>
<rect width="21.9872" height="17.1353" transform="matrix(-1 0 0 1 92.9999 104.341)" fill="#4E4D59"/>
<rect width="26.147" height="4.5898" transform="matrix(-1 0 0 1 92.9999 121.477)" fill="#4E4D59"/>
<rect width="25.456" height="23.4894" transform="matrix(-1 0 0 1 75.3644 21.5319)" fill="#00918E"/>
<rect width="25.456" height="23.4894" transform="matrix(-1 0 0 1 43.0549 21.5319)" fill="#00918E"/>
<rect width="52.8701" height="2.93617" transform="matrix(-1 0 0 1 92.9878 51.8723)" fill="#00918E"/>
<rect width="31.3304" height="2.93617" transform="matrix(-1 0 0 1 92.9878 58.7234)" fill="#00918E"/>
<rect width="18.6024" height="2.93617" transform="matrix(-1 0 0 1 92.9878 66.5532)" fill="#00918E"/>
<rect width="9.79076" height="2.93617" transform="matrix(-1 0 0 1 92.9878 74.3829)" fill="#00918E"/>
<rect width="73.984" height="101.894" rx="5" transform="matrix(-1 0 0 1 166.984 29.3748)" fill="#2F2E41"/>
<rect width="64.476" height="82.0044" transform="matrix(-1 0 0 1 162.23 39.4723)" fill="white"/>
<ellipse rx="1.48562" ry="1.52993" transform="matrix(-1 0 0 1 130.141 34.5764)" fill="white"/>
<ellipse rx="2.67412" ry="2.75388" transform="matrix(-1 0 0 1 130.141 126.373)" fill="white"/>
<rect width="23.4978" height="23.4894" transform="matrix(-1 0 0 1 156.628 46.9788)" fill="#00918E"/>
<rect width="23.4978" height="23.4894" transform="matrix(-1 0 0 1 156.628 76.3405)" fill="#00918E"/>
<rect width="23.4978" height="23.4894" transform="matrix(-1 0 0 1 127.255 46.9788)" fill="#00918E"/>
<rect width="23.4978" height="23.4894" transform="matrix(-1 0 0 1 127.255 76.3405)" fill="#00918E"/>
<rect width="24.4769" height="1.95745" transform="matrix(-1 0 0 1 142.921 106.681)" fill="#00918E"/>
<rect width="16.6443" height="1.95745" transform="matrix(-1 0 0 1 139.004 110.596)" fill="#00918E"/>
<rect width="38.3291" height="78.6386" rx="5" transform="matrix(-1 0 0 1 186 59.3613)" fill="#2F2E41"/>
<rect width="32.6837" height="64.8692" transform="matrix(-1 0 0 1 183.326 66.399)" fill="white"/>
<ellipse rx="1.93131" ry="1.98891" transform="matrix(-1 0 0 1 166.835 134.175)" fill="white"/>
<line y1="-0.5" x2="7.42811" y2="-0.5" transform="matrix(-1 0 0 1 171.144 62.7272)" stroke="white"/>
<line y1="-0.5" x2="0.594249" y2="-0.5" transform="matrix(-1 0 0 1 163.121 62.7272)" stroke="white"/>
<rect width="23.4978" height="23.4894" transform="matrix(-1 0 0 1 179.146 75.3617)" fill="#00918E"/>
<rect width="23.4978" height="23.4894" transform="matrix(-1 0 0 1 179.146 102.766)" fill="#00918E"/>
</svg>
