<svg width="186" height="138" viewBox="0 0 186 138" fill="none" xmlns="http://www.w3.org/2000/svg">
<path d="M0 3.52161C0 1.86475 1.34315 0.521606 3 0.521606H153.983C155.64 0.521606 156.983 1.86475 156.983 3.52161V100.632C156.983 102.288 155.64 103.632 153.983 103.632H3C1.34315 103.632 0 102.288 0 100.632V3.52161Z" fill="white"/>
<path d="M116.518 58.2613C116.001 57.6728 115.602 57.1433 115.319 56.7004C111.874 48.076 123.475 42.6742 129.706 41.0513C160.946 31.1055 178.804 56.1498 183.828 69.9151C187.106 84.6461 186.295 96.9793 183.895 106.483C180.2 121.118 168.184 132.515 153.513 136.064C140.971 139.099 128.949 138.021 122.757 136.511C101.93 131.503 91.9606 118.311 89.5791 112.342C85.715 101.357 92.7544 96.326 98.8785 94.5475C101.304 93.843 103.868 93.9529 106.387 93.7732C115.075 93.1537 123.672 89.3152 127.259 87.2161C127.754 86.961 128.227 86.7019 128.677 86.4394C140.697 79.4316 125.703 68.7114 116.518 58.2613Z" fill="#2F2E41"/>
<path d="M140.933 131.539C136.92 128.757 109.777 74.0433 101.981 57.5538L114.214 52.5983C120.579 68.0303 136.045 107.276 143.917 127.351C144.601 129.094 145.497 131.705 143.748 132.373C143.153 132.6 142.264 132.462 140.933 131.539Z" fill="#13547A"/>
<path d="M109.712 56.7712C104.976 58.3138 101.542 57.6607 99.2205 56.2104C96.3935 54.4441 98.7748 51.2295 102.07 50.728C105.566 50.196 108.787 49.1007 111.31 47.9824C113.297 47.1018 115.855 48.2613 115.638 50.4237C115.267 54.1235 113.143 55.6537 109.712 56.7712Z" fill="#93A5CF"/>
<path d="M95.9125 47.9905C93.4853 42.7046 99.9252 36.5724 103.448 34.1671C103.135 37.9924 105.275 42.0786 106.385 43.6435C108.029 46.1473 112.55 46.4835 114.606 46.3386C107.794 50.5117 100.023 51.2652 96.9891 51.1203C97.8503 50.3552 96.6302 48.715 95.9125 47.9905Z" fill="#80D0C7"/>
<ellipse cx="133.984" cy="53.9023" rx="10.8636" ry="9.21556" fill="white"/>
<ellipse cx="163.541" cy="65.7261" rx="10.8636" ry="9.21556" fill="#F1534D"/>
<ellipse cx="167.847" cy="91.1123" rx="10.8636" ry="9.21556" fill="#5992F1"/>
<ellipse cx="159.039" cy="116.499" rx="10.8636" ry="9.21556" fill="#00918E"/>
<ellipse cx="114.606" cy="116.499" rx="10.8636" ry="9.21556" fill="#FFF617"/>
<path d="M0 2C0 0.895431 0.89543 0 2 0H154.983C156.088 0 156.983 0.895431 156.983 2V8.69393H0V2Z" fill="#2F2E41"/>
<rect x="8.80823" y="18.4312" width="41.4969" height="25.3863" fill="#00918E"/>
<rect x="8.80823" y="69.5513" width="41.4969" height="25.3863" fill="#00918E"/>
<rect x="8.80823" y="47.6427" width="77.7088" height="18.0834" fill="#00918E"/>
<rect x="64.007" y="21.3871" width="65.3772" height="3.12981" fill="#00918E"/>
<rect x="64.007" y="27.8207" width="41.4969" height="3.12981" fill="#00918E"/>
<rect x="64.007" y="34.254" width="19.9655" height="3.12981" fill="#00918E"/>
<rect x="57.3518" y="75.4633" width="41.4969" height="3.12981" fill="#00918E"/>
<rect x="57.3518" y="81.8967" width="29.1653" height="3.12981" fill="#00918E"/>
<rect x="57.3518" y="88.3303" width="19.9655" height="3.12981" fill="#00918E"/>
<ellipse cx="6.16587" cy="4.46383" rx="2.44675" ry="2.37716" fill="#00918E"/>
<ellipse cx="13.6039" cy="4.46383" rx="2.44675" ry="2.37716" fill="#00918E"/>
<ellipse cx="21.0421" cy="4.46383" rx="2.44675" ry="2.37716" fill="#00918E"/>
</svg>
