<svg width="186" height="138" viewBox="0 0 186 138" fill="none" xmlns="http://www.w3.org/2000/svg">
<rect width="136.098" height="106.156" rx="2" fill="white"/>
<path d="M0 2C0 0.895429 0.895431 0 2 0H134.098C135.202 0 136.098 0.89543 136.098 2V9.98049H0V2Z" fill="#2F2E41"/>
<ellipse cx="5.46559" cy="4.68628" rx="2.10217" ry="2.39099" fill="#00918E"/>
<ellipse cx="11.8562" cy="4.68628" rx="2.10217" ry="2.39099" fill="#00918E"/>
<ellipse cx="18.2469" cy="4.68628" rx="2.10217" ry="2.39099" fill="#00918E"/>
<rect x="9.75407" y="20.4668" width="106.79" height="19.1279" fill="#00918E"/>
<rect x="9.75407" y="50.4977" width="34.8119" height="47.0546" fill="#00918E"/>
<rect x="50.9566" y="50.4977" width="32.7939" height="21.0407" fill="#00918E"/>
<rect x="50.9566" y="79.1895" width="26.4033" height="18.3628" fill="#00918E"/>
<rect x="83.7505" y="45.333" width="102.25" height="92.5791" rx="2" fill="#2F2E41"/>
<path d="M162.695 88.4451L144.505 75.2661C143.852 74.7931 143.498 74.0108 143.572 73.2081C143.738 71.4117 145.825 70.5097 147.247 71.6196L168.853 88.4782C170.901 90.0768 170.906 93.1739 168.862 94.7783L146.961 111.968C145.702 112.956 143.845 112.208 143.623 110.623C143.517 109.876 143.826 109.13 144.43 108.675L162.754 94.8799C164.904 93.2612 164.874 90.0241 162.695 88.4451Z" fill="#00918E"/>
<path d="M107.056 88.4451L125.245 75.2661C125.898 74.7931 126.253 74.0108 126.179 73.2081C126.012 71.4117 123.925 70.5097 122.503 71.6196L100.898 88.4782C98.849 90.0768 98.8446 93.1739 100.889 94.7783L122.79 111.968C124.049 112.956 125.905 112.208 126.128 110.623C126.233 109.876 125.924 109.13 125.321 108.675L106.997 94.8799C104.847 93.2612 104.876 90.0241 107.056 88.4451Z" fill="#00918E"/>
<path d="M128.995 109.537L136.755 70.7038C136.947 69.7432 137.79 69.0516 138.77 69.0516C140.063 69.0516 141.035 70.2319 140.787 71.5011L133.182 110.365C132.986 111.367 132.108 112.089 131.087 112.089C129.741 112.089 128.731 110.858 128.995 109.537Z" fill="#00918E"/>
</svg>
