<svg width="568" height="417" viewBox="0 0 568 417" fill="none" xmlns="http://www.w3.org/2000/svg">
<path d="M468.434 0L498.112 48.5002C490.097 53.7055 484.43 61.8332 482.317 71.1531C480.205 80.4731 481.814 90.2493 486.802 98.401C491.79 106.553 499.764 112.436 509.025 114.798C518.286 117.161 528.104 115.816 536.389 111.051L567.945 162.619L263.513 348.843L164.002 186.224L468.434 0Z" fill="#F2F2F2"/>
<path d="M513.655 103.154C500.453 103.154 489.751 92.4533 489.751 79.254C489.751 66.0546 500.453 55.3544 513.655 55.3544C526.857 55.3544 537.559 66.0546 537.559 79.254C537.559 92.4533 526.857 103.154 513.655 103.154Z" fill="#F2F2F2"/>
<path d="M291.85 399.397C245.183 399.397 207.352 396.909 207.352 393.839C207.352 390.769 245.183 388.281 291.85 388.281C338.516 388.281 376.347 390.769 376.347 393.839C376.347 396.909 338.516 399.397 291.85 399.397Z" fill="#F2F2F2"/>
<path d="M434.717 417C412.919 417 395.248 415.838 395.248 414.404C395.248 412.97 412.919 411.808 434.717 411.808C456.515 411.808 474.186 412.97 474.186 414.404C474.186 415.838 456.515 417 434.717 417Z" fill="#F2F2F2"/>
<path d="M123.967 386.614C77.3 386.614 39.4692 384.125 39.4692 381.056C39.4692 377.986 77.3 375.498 123.967 375.498C170.633 375.498 208.464 377.986 208.464 381.056C208.464 384.125 170.633 386.614 123.967 386.614Z" fill="#F2F2F2"/>
<path d="M564.531 371.919H39.89" stroke="#2F2E41" stroke-width="2" stroke-miterlimit="10"/>
<path d="M60.3156 97.8734H466.125V371.885H60.3156V97.8734Z" fill="#3F3D56"/>
<path d="M466.125 117.915H60.3155" stroke="#2F2E41" stroke-width="2" stroke-miterlimit="10"/>
<path d="M453.618 112.88C450.854 112.88 448.614 110.641 448.614 107.878C448.614 105.115 450.854 102.876 453.618 102.876C456.381 102.876 458.621 105.115 458.621 107.878C458.621 110.641 456.381 112.88 453.618 112.88Z" fill="#00918E"/>
<path d="M438.608 113.158C435.845 113.158 433.605 110.918 433.605 108.156C433.605 105.393 435.845 103.154 438.608 103.154C441.371 103.154 443.611 105.393 443.611 108.156C443.611 110.918 441.371 113.158 438.608 113.158Z" fill="#00918E"/>
<path d="M423.599 113.436C420.836 113.436 418.596 111.196 418.596 108.434C418.596 105.671 420.836 103.431 423.599 103.431C426.362 103.431 428.602 105.671 428.602 108.434C428.602 111.196 426.362 113.436 423.599 113.436Z" fill="#00918E"/>
<path opacity="0.3" d="M98.395 136.502H440.832V203.198H98.395V136.502Z" fill="#00918E"/>
<path opacity="0.3" d="M440.832 203.198L98.395 136.502" stroke="#00918E" stroke-width="2" stroke-miterlimit="10"/>
<path opacity="0.3" d="M98.395 203.198L440.832 136.502" stroke="#00918E" stroke-width="2" stroke-miterlimit="10"/>
<path opacity="0.3" d="M359.114 245.439H440.832V352.71H359.114V245.439Z" fill="#00918E"/>
<path opacity="0.3" d="M98.395 245.439H180.113V352.71H98.395V245.439Z" fill="#00918E"/>
<path opacity="0.3" d="M228.755 245.439H310.472V352.71H228.755V245.439Z" fill="#00918E"/>
<path opacity="0.3" d="M440.832 245.439L359.114 352.71" stroke="#00918E" stroke-width="2" stroke-miterlimit="10"/>
<path opacity="0.3" d="M359.114 245.439L440.832 352.71" stroke="#00918E" stroke-width="2" stroke-miterlimit="10"/>
<path opacity="0.3" d="M310.194 245.439L228.476 352.71" stroke="#00918E" stroke-width="2" stroke-miterlimit="10"/>
<path opacity="0.3" d="M228.476 245.439L310.194 352.71" stroke="#00918E" stroke-width="2" stroke-miterlimit="10"/>
<path opacity="0.3" d="M180.113 245.439L98.395 352.71" stroke="#00918E" stroke-width="2" stroke-miterlimit="10"/>
<path opacity="0.3" d="M98.395 245.439L180.113 352.71" stroke="#00918E" stroke-width="2" stroke-miterlimit="10"/>
<path d="M52.8108 136.502H395.248V203.198H52.8108V136.502Z" fill="#00918E"/>
<path d="M82.8298 271.006H164.548V378.277H82.8298V271.006Z" fill="#00918E"/>
<path d="M94.7817 285.179H152.596V291.849H94.7817V285.179Z" fill="#3F3D56"/>
<path d="M94.7817 299.63H152.596V306.3H94.7817V299.63Z" fill="#3F3D56"/>
<path d="M94.7817 314.081H152.596V320.751H94.7817V314.081Z" fill="#3F3D56"/>
<path d="M94.7817 328.532H152.596V335.202H94.7817V328.532Z" fill="#3F3D56"/>
<path d="M94.7817 342.983H152.596V349.653H94.7817V342.983Z" fill="#3F3D56"/>
<path d="M94.7817 357.434H152.596V364.104H94.7817V357.434Z" fill="#3F3D56"/>
<path d="M339.102 259.89H420.819V367.16H339.102V259.89Z" fill="#00918E"/>
<path d="M351.053 295.74H408.867V302.409H351.053V295.74Z" fill="#3F3D56"/>
<path d="M351.053 310.191H408.867V316.86H351.053V310.191Z" fill="#3F3D56"/>
<path d="M351.053 324.641H408.867V331.311H351.053V324.641Z" fill="#3F3D56"/>
<path d="M207.444 175.613C207.444 188.101 214.869 192.462 224.029 192.462C224.241 192.462 224.453 192.459 224.665 192.455C225.089 192.446 225.51 192.425 225.925 192.397C234.191 191.812 240.614 187.227 240.614 175.613C240.614 163.594 225.252 148.427 224.098 147.305L224.096 147.303C224.051 147.26 224.029 147.238 224.029 147.238C224.029 147.238 207.444 163.125 207.444 175.613Z" fill="#3F3D56"/>
<path d="M224.633 190.551L218.568 182.077L224.649 191.482L224.665 192.455C225.089 192.446 225.51 192.425 225.925 192.397L225.271 179.903L225.276 179.806L225.265 179.788L225.203 178.608L231.3 169.18L225.184 177.723L225.17 177.973L224.676 168.533L229.895 158.791L224.612 166.876L224.098 147.305L224.096 147.238V147.303L224.182 162.736L218.986 156.618L224.203 164.066L224.34 172.518L219.489 164.406L224.361 173.761L224.437 178.46L217.394 167.17L224.464 180.1L224.633 190.551Z" fill="#00918E"/>
<path d="M522.287 201.574C515.093 201.574 509.261 195.743 509.261 188.55C509.261 181.357 515.093 175.526 522.287 175.526C529.482 175.526 535.314 181.357 535.314 188.55C535.314 195.743 529.482 201.574 522.287 201.574Z" fill="#2F2E41"/>
<path d="M529.146 197.221C529.146 197.221 528.95 205.26 529.734 205.456C530.519 205.653 518.948 208.79 518.948 208.79L517.771 197.809L529.146 197.221Z" fill="#A0616A"/>
<path d="M437.756 265.85C437.756 265.85 429.126 265.849 428.93 264.869C428.734 263.889 426.969 272.908 426.969 272.908L430.499 274.085C430.499 274.085 437.167 271.144 437.756 271.144C438.344 271.144 437.756 265.85 437.756 265.85Z" fill="#A0616A"/>
<path d="M428.342 269.379C428.342 269.379 429.911 264.085 431.872 263.889C431.872 263.889 425.204 259.575 425.008 258.202C424.812 256.83 422.458 253.3 421.478 254.477C420.497 255.653 420.497 274.281 422.262 276.242C424.027 278.203 431.872 273.486 431.872 273.486C431.872 273.486 426.969 271.34 428.342 269.379Z" fill="#2F2E41"/>
<path d="M534.833 344.478L536.402 352.909L529.146 354.086V344.478H534.833Z" fill="#A0616A"/>
<path d="M534.833 351.929C534.833 351.929 536.01 348.203 536.794 348.792C537.579 349.38 538.756 353.106 538.559 354.086C538.363 355.066 536.991 362.714 537.579 364.086C538.167 365.459 534.637 372.518 530.126 371.929C525.616 371.341 526.008 367.419 526.008 367.419L527.577 361.341L528.165 351.733C528.165 351.733 533.264 350.949 534.833 351.929Z" fill="#2F2E41"/>
<path d="M526.844 180.232C523.867 180.232 521.454 177.819 521.454 174.843C521.454 171.866 523.867 169.454 526.844 169.454C529.821 169.454 532.234 171.866 532.234 174.843C532.234 177.819 529.821 180.232 526.844 180.232Z" fill="#2F2E41"/>
<path d="M534.031 171.924C534.031 170.592 533.538 169.307 532.646 168.317C531.754 167.327 530.527 166.702 529.202 166.564C529.389 166.544 529.576 166.534 529.764 166.534C531.193 166.534 532.564 167.102 533.575 168.113C534.586 169.124 535.154 170.494 535.154 171.924C535.154 173.353 534.586 174.724 533.575 175.734C532.564 176.745 531.193 177.313 529.764 177.313C529.576 177.313 529.389 177.303 529.202 177.284C530.527 177.145 531.754 176.52 532.646 175.53C533.538 174.541 534.031 173.256 534.031 171.924Z" fill="#2F2E41"/>
<path d="M522.282 202.711C517.733 202.711 514.045 199.024 514.045 194.476C514.045 189.928 517.733 186.241 522.282 186.241C526.831 186.241 530.519 189.928 530.519 194.476C530.519 199.024 526.831 202.711 522.282 202.711Z" fill="#A0616A"/>
<path d="M538.559 251.732C538.559 251.732 538.167 261.536 536.598 266.634C535.029 271.732 529.373 308.039 530.55 310.784C531.726 313.53 537.775 343.89 536.402 345.654C535.029 347.419 528.558 346.831 528.558 346.831L519.763 310C519.763 310 521.497 269.379 506.985 268.399C492.472 267.418 468.742 266.83 468.742 266.83C468.742 266.83 453.445 271.34 446.581 271.144C439.717 270.948 435.794 272.908 435.794 272.908L434.618 264.869L465.016 258.202C465.016 258.202 492.864 248.594 508.161 251.143C523.458 253.692 538.559 251.732 538.559 251.732Z" fill="#2F2E41"/>
<path d="M527.577 202.907C527.577 202.907 529.93 201.535 530.519 202.907C531.107 204.28 535.225 205.456 536.794 204.28C538.363 203.104 542.286 204.672 542.286 204.672L546.6 217.417C546.6 217.417 544.443 228.398 542.482 234.476C540.521 240.555 539.736 253.104 540.521 254.281C541.305 255.457 524.831 260.163 516.791 257.222C508.75 254.281 506.985 250.947 506.985 250.947C506.985 250.947 515.81 238.398 512.868 232.516C509.926 226.633 512.28 219.966 512.28 219.966L511.103 213.3L517.771 209.574C517.771 209.574 518.163 206.045 519.732 206.045C521.301 206.045 527.577 202.907 527.577 202.907Z" fill="#D0CDE1"/>
<path d="M514.045 213.496H511.103C510.287 214.259 509.679 215.218 509.336 216.281C508.993 217.345 508.926 218.478 509.142 219.574C509.926 223.3 513.464 235.651 513.464 235.651L516.398 228.006L514.045 213.496Z" fill="#D0CDE1"/>
<path d="M505.597 244.985C505.597 244.985 499.728 251.339 504.043 254.673C508.357 258.006 509.421 247.026 509.421 247.026L505.597 244.985Z" fill="#A0616A"/>
<path d="M514.045 231.731L512.672 237.222L510.319 241.535C510.319 241.535 502.278 246.83 502.278 248.79C502.278 248.79 505.808 244.281 510.319 248.79L514.339 239.084L514.045 231.731Z" fill="#D0CDE1"/>
<path d="M520.772 191.178C515.811 191.178 511.788 188.765 511.788 185.789C511.788 182.813 515.811 180.4 520.772 180.4C525.734 180.4 529.756 182.813 529.756 185.789C529.756 188.765 525.734 191.178 520.772 191.178Z" fill="#2F2E41"/>
<path d="M538.559 186.241C538.559 186.241 532.284 182.711 529.734 185.26C527.185 187.809 537.383 191.731 537.383 191.731L538.559 186.241Z" fill="#A0616A"/>
<path d="M540.913 205.653L542.286 204.672C542.286 204.672 543.855 202.319 545.227 203.104C546.6 203.888 554.641 200.162 554.641 200.162C554.641 200.162 551.699 201.535 551.699 199.182C551.699 196.829 551.307 197.221 549.346 197.221C547.385 197.221 547.385 198.201 546.6 196.829C545.816 195.456 546.208 194.672 544.835 195.456C543.462 196.241 541.893 195.652 541.501 195.064C541.109 194.476 534.049 193.496 534.049 193.496C534.049 193.496 536.794 185.456 537.383 184.868C537.971 184.28 553.072 190.946 553.072 190.946C553.072 190.946 572.095 196.241 567.192 202.319C562.289 208.398 544.639 217.613 544.639 217.613L540.913 205.653Z" fill="#D0CDE1"/>
<path d="M246.821 286.569H328.539V393.839H246.821V286.569Z" fill="#00918E"/>
<path d="M269.336 303.521H306.025V340.204H269.336V303.521Z" fill="#3F3D56"/>
<path d="M255.438 347.985H319.923V352.432H255.438V347.985Z" fill="#3F3D56"/>
<path d="M255.438 360.213H319.923V364.659H255.438V360.213Z" fill="#3F3D56"/>
<path d="M255.438 372.441H319.923V376.887H255.438V372.441Z" fill="#3F3D56"/>
<path d="M422.002 402.973C422.002 411.077 426.82 413.906 432.764 413.906C432.902 413.906 433.039 413.905 433.177 413.902C433.452 413.896 433.725 413.883 433.994 413.865C439.359 413.485 443.527 410.51 443.527 402.973C443.527 395.173 433.558 385.331 432.809 384.602L432.808 384.601C432.779 384.573 432.764 384.559 432.764 384.559C432.764 384.559 422.002 394.869 422.002 402.973Z" fill="#00918E"/>
<path d="M433.156 412.667L429.22 407.167L433.166 413.271L433.177 413.902C433.452 413.896 433.725 413.883 433.994 413.865L433.57 405.757L433.573 405.694L433.566 405.682L433.526 404.916L437.482 398.798L433.514 404.342L433.504 404.504L433.184 398.378L436.571 392.056L433.143 397.303L432.809 384.602L432.807 384.559V384.601L432.863 394.616L429.491 390.646L432.877 395.479L432.966 400.964L429.818 395.7L432.979 401.771L433.029 404.82L428.459 397.494L433.046 405.884L433.156 412.667Z" fill="#3F3D56"/>
</svg>
